<?xml version="1.0" encoding="UTF-8" standalone="no"?>
<svg xmlns:dc="http://purl.org/dc/elements/1.1/" xmlns:cc="http://creativecommons.org/ns#" xmlns:rdf="http://www.w3.org/1999/02/22-rdf-syntax-ns#" xmlns:svg="http://www.w3.org/2000/svg" xmlns="http://www.w3.org/2000/svg" xmlns:xlink="http://www.w3.org/1999/xlink" xmlns:sodipodi="http://sodipodi.sourceforge.net/DTD/sodipodi-0.dtd" xmlns:inkscape="http://www.inkscape.org/namespaces/inkscape" height="1209.5901" width="891.53918" xml:space="preserve" viewBox="0 0 891.53918 1209.5901" y="0px" x="0px" id="Layer_1" version="1.1" sodipodi:docname="logo.svg" inkscape:export-filename="/home/stl-016/Downloads/logo.png" inkscape:export-xdpi="96" inkscape:export-ydpi="96" inkscape:version="0.92.4 (f8dce91, 2019-08-02)">
  <sodipodi:namedview pagecolor="#ffffff" bordercolor="#666666" borderopacity="1" objecttolerance="10" gridtolerance="10" guidetolerance="10" inkscape:pageopacity="0" inkscape:pageshadow="2" inkscape:window-width="1366" inkscape:window-height="713" id="namedview92" showgrid="false" inkscape:zoom="0.19510742" inkscape:cx="445.76959" inkscape:cy="604.79504" inkscape:window-x="0" inkscape:window-y="27" inkscape:window-maximized="1" inkscape:current-layer="Layer_1" />
  <metadata id="metadata313">
    <rdf:RDF>
      <cc:Work rdf:about="">
        <dc:format>image/svg+xml</dc:format>
        <dc:type rdf:resource="http://purl.org/dc/dcmitype/StillImage" />
        <dc:title></dc:title>
      </cc:Work>
    </rdf:RDF>
  </metadata>
  <defs id="defs311" />
  <style id="style2" type="text/css">
    .st0 {
      fill: #2B3164;
    }

    .st1 {
      fill: #ED1C24;
    }

    .st2 {
      fill: #00AFEF;
    }

    .st3 {
      fill: #FFFFFF;
    }

    .st4 {
      stroke: #FFFFFF;
      stroke-width: 4;
      stroke-miterlimit: 10;
    }

    .st5 {
      fill: #FFFFFF;
      stroke: #000000;
      stroke-width: 9;
      stroke-miterlimit: 10;
    }

    .st6 {
      fill: #FFFFFF;
      stroke: #000000;
      stroke-width: 20;
      stroke-miterlimit: 10;
    }

    .st7 {
      fill: #1C2F4B;
    }

    .st8 {
      clip-path: url(#SVGID_2_);
    }

    .st9 {
      clip-path: url(#SVGID_4_);
    }

    .st10 {
      fill: none;
    }

    .st11 {
      clip-path: url(#SVGID_6_);
      fill: #00AFEF;
    }

    .st12 {
      clip-path: url(#SVGID_8_);
      fill: #00AFEF;
    }

    .st13 {
      fill: none;
      stroke: #000000;
      stroke-width: 0.25;
      stroke-miterlimit: 10;
    }

    .st14 {
      clip-path: url(#SVGID_10_);
      fill: #00AFEF;
    }

    .st15 {
      clip-path: url(#SVGID_12_);
      fill: #00AFEF;
    }

    .st16 {
      clip-path: url(#SVGID_14_);
    }

    .st17 {
      clip-path: url(#SVGID_16_);
      fill: #FFFFFF;
    }

    .st18 {
      clip-path: url(#SVGID_18_);
    }

    .st19 {
      clip-path: url(#SVGID_20_);
      fill: #FFFFFF;
    }

    .st20 {
      clip-path: url(#SVGID_22_);
    }

    .st21 {
      clip-path: url(#SVGID_24_);
      fill: #FFFFFF;
    }

    .st22 {
      clip-path: url(#SVGID_26_);
    }

    .st23 {
      clip-path: url(#SVGID_28_);
      fill: #FFFFFF;
    }

    .st24 {
      clip-path: url(#SVGID_30_);
    }

    .st25 {
      clip-path: url(#SVGID_32_);
      fill: #FFFFFF;
    }

    .st26 {
      clip-path: url(#SVGID_34_);
    }

    .st27 {
      clip-path: url(#SVGID_36_);
      fill: #FFFFFF;
    }

    .st28 {
      clip-path: url(#SVGID_38_);
    }

    .st29 {
      clip-path: url(#SVGID_40_);
      fill: #FFFFFF;
    }

    .st30 {
      clip-path: url(#SVGID_42_);
    }

    .st31 {
      clip-path: url(#SVGID_44_);
      fill: #2B3164;
    }

    .st32 {
      clip-path: url(#SVGID_46_);
    }

    .st33 {
      clip-path: url(#SVGID_48_);
      fill: #2B3164;
    }

    .st34 {
      clip-path: url(#SVGID_50_);
    }

    .st35 {
      clip-path: url(#SVGID_52_);
      fill: #2B3164;
    }

    .st36 {
      clip-path: url(#SVGID_54_);
    }

    .st37 {
      clip-path: url(#SVGID_56_);
      fill: #2B3164;
    }

    .st38 {
      clip-path: url(#SVGID_58_);
    }

    .st39 {
      clip-path: url(#SVGID_60_);
      fill: #2B3164;
    }

    .st40 {
      clip-path: url(#SVGID_62_);
    }

    .st41 {
      clip-path: url(#SVGID_64_);
      fill: #2B3164;
    }

    .st42 {
      clip-path: url(#SVGID_66_);
    }

    .st43 {
      clip-path: url(#SVGID_68_);
      fill: #2B3164;
    }
  </style>
  <g transform="translate(-319.96722,-1857.8475)" id="g306">
    <g id="g304">
      <g id="g182">
        <defs id="defs165">
          <path d="m 1006.36,2977.17 c -28.57,3.92 -56.45,11.79 -83.44,19.4 -23.75,6.67 -48.28,13.62 -73.51,17.94 -59.05,10.13 -118.02,6.62 -175.31,-10.42 -22.96,-6.55 -44.34,-14.32 -63.29,-22.25 -5.66,-2.37 -10.17,5.24 -5.35,9.08 41.12,32.85 100.08,67.09 172.09,73.51 l 8.21,0.79 c 5.33,0.55 10.65,1.08 15.98,1.42 16.23,1.05 32.56,1.07 48.54,0.02 15.15,-0.99 30.45,-2.83 45.44,-5.46 14.97,-2.65 29.99,-6.18 44.62,-10.44 4.45,-1.27 8.83,-2.68 13.19,-4.1 10.63,-3.47 21.25,-7.13 31.9,-10.79 28.13,-9.67 57.2,-19.65 86.72,-26.81 27.34,-6.62 54.68,-11.55 81.85,-12.43 18.3,-0.62 17.74,-5.13 10.96,-7.08 -52.98,-15.34 -106.32,-19.52 -158.6,-12.38" id="SVGID_41_" />
        </defs>
        <use height="100%" width="100%" y="0" x="0" id="use167" style="clip-rule:evenodd;overflow:visible;fill:#2b3164;fill-rule:evenodd" xlink:href="#SVGID_41_" />
        <clipPath id="SVGID_30_">
          <use height="100%" width="100%" y="0" x="0" id="use169" style="overflow:visible" xlink:href="#SVGID_41_" />
        </clipPath>
        <g id="g180" clip-path="url(#SVGID_30_)" class="st24">
          <defs id="defs173">
            <rect height="18759.539" width="28259.27" y="-765.56" x="-873.88" id="SVGID_43_" />
          </defs>
          <use height="100%" width="100%" y="0" x="0" id="use175" style="overflow:visible;fill:#2b3164" xlink:href="#SVGID_43_" />
          <clipPath id="SVGID_32_">
            <use height="100%" width="100%" y="0" x="0" id="use177" style="overflow:visible" xlink:href="#SVGID_43_" />
          </clipPath>
        </g>
      </g>
      <g id="g202">
        <defs id="defs185">
          <path d="m 340.84,2826.89 c 18.63,0 38.48,0.74 58.87,2.57 37.25,3.33 76.04,10.83 115.32,22.28 33.37,9.65 65.93,22.03 97.42,34 35.77,13.59 72.76,27.67 110.18,37.38 46.01,11.97 80.58,15.43 112.25,11.27 h 0.02 c 48.06,-6.31 87.77,-29.95 119.45,-58.93 2.97,-2.7 -0.07,-7.5 -3.79,-5.99 -35.75,14.54 -75.2,21.36 -116.15,20.32 -67.41,-2.08 -132.51,-24.77 -189.95,-44.77 -10.33,-3.58 -20.67,-7.37 -31,-11.16 -32.1,-11.77 -65.32,-23.94 -98.71,-29.86 -12.86,-2.26 -25.47,-3.95 -37.43,-5.02 -53.14,-4.67 -106.49,3.44 -154.74,22.74 -2.88,1.14 -1.96,5.46 1.1,5.37 5.59,-0.13 11.33,-0.2 17.16,-0.2" id="SVGID_45_" />
        </defs>
        <use height="100%" width="100%" y="0" x="0" id="use187" style="clip-rule:evenodd;overflow:visible;fill:#2b3164;fill-rule:evenodd" xlink:href="#SVGID_45_" />
        <clipPath id="SVGID_34_">
          <use height="100%" width="100%" y="0" x="0" id="use189" style="overflow:visible" xlink:href="#SVGID_45_" />
        </clipPath>
        <g id="g200" clip-path="url(#SVGID_34_)" class="st26">
          <defs id="defs193">
            <rect height="18759.539" width="28259.27" y="-765.56" x="-873.88" id="SVGID_47_" />
          </defs>
          <use height="100%" width="100%" y="0" x="0" id="use195" style="overflow:visible;fill:#2b3164" xlink:href="#SVGID_47_" />
          <clipPath id="SVGID_36_">
            <use height="100%" width="100%" y="0" x="0" id="use197" style="overflow:visible" xlink:href="#SVGID_47_" />
          </clipPath>
        </g>
      </g>
      <g id="g222">
        <defs id="defs205">
          <path d="m 363.83,2275.69 377.51,-229.12 c 14.99,-9.1 33.79,-9.1 48.79,0 l 377.52,229.14 c 4.87,2.94 11.23,0.24 12.62,-5.3 17.33,-69 27.28,-121.51 31.11,-143.08 0.6,-3.48 -0.97,-6.82 -3.98,-8.66 L 787.9,1864.05 c -13.63,-8.27 -30.69,-8.27 -44.3,0 l -419.54,254.62 c -2.99,1.84 -4.58,5.18 -3.96,8.66 3.83,21.58 13.78,74.09 31.11,143.06 1.41,5.54 7.76,8.25 12.62,5.3" id="SVGID_49_" />
        </defs>
        <use height="100%" width="100%" y="0" x="0" id="use207" style="clip-rule:evenodd;overflow:visible;fill:#2b3164;fill-rule:evenodd" xlink:href="#SVGID_49_" />
        <clipPath id="SVGID_38_">
          <use height="100%" width="100%" y="0" x="0" id="use209" style="overflow:visible" xlink:href="#SVGID_49_" />
        </clipPath>
        <g id="g220" clip-path="url(#SVGID_38_)" class="st28">
          <defs id="defs213">
            <rect height="18759.539" width="28259.27" y="-765.56" x="-873.88" id="SVGID_51_" />
          </defs>
          <use height="100%" width="100%" y="0" x="0" id="use215" style="overflow:visible;fill:#2b3164" xlink:href="#SVGID_51_" />
          <clipPath id="SVGID_40_">
            <use height="100%" width="100%" y="0" x="0" id="use217" style="overflow:visible" xlink:href="#SVGID_51_" />
          </clipPath>
        </g>
      </g>
      <g id="g242">
        <defs id="defs225">
          <path d="m 526.96,2730.38 c 0.53,0.94 1.5,1.53 2.58,1.53 3.66,0.04 12.15,0.17 16.4,0.4 10.85,0.64 22.1,1.78 33.4,3.44 30.01,4.39 59.02,14.03 87.05,23.35 8.63,2.87 17.22,5.72 25.85,8.42 21.79,6.88 48.87,15.39 75.22,21.51 28.69,6.71 54.13,9.95 77.65,9.97 43.21,0 83.66,-11.93 117.01,-34.51 5.06,-3.42 10.44,-7.1 15.9,-11.03 5.13,-3.68 10.33,-7.59 15.43,-11.73 11.62,-7.35 11.62,-23.13 1.85,-28.59 l -19.51,-10.9 -192,-116.54 c -11.12,-6.73 -25.05,-6.73 -36.13,0 l -223.5,135.67 c -0.95,0.57 -1.28,1.78 -0.73,2.76 1.06,1.89 2.71,4.8 3.53,6.25" id="SVGID_53_" />
        </defs>
        <use height="100%" width="100%" y="0" x="0" id="use227" style="clip-rule:evenodd;overflow:visible;fill:#2b3164;fill-rule:evenodd" xlink:href="#SVGID_53_" />
        <clipPath id="SVGID_42_">
          <use height="100%" width="100%" y="0" x="0" id="use229" style="overflow:visible" xlink:href="#SVGID_53_" />
        </clipPath>
        <g id="g240" clip-path="url(#SVGID_42_)" class="st30">
          <defs id="defs233">
            <rect height="18759.539" width="28259.27" y="-765.56" x="-873.88" id="SVGID_55_" />
          </defs>
          <use height="100%" width="100%" y="0" x="0" id="use235" style="overflow:visible;fill:#2b3164" xlink:href="#SVGID_55_" />
          <clipPath id="SVGID_44_">
            <use height="100%" width="100%" y="0" x="0" id="use237" style="overflow:visible" xlink:href="#SVGID_55_" />
          </clipPath>
        </g>
      </g>
      <g id="g262">
        <defs id="defs245">
          <path d="m 784.54,2344.28 303.83,184.39 c 4.51,2.74 10.41,0.75 12.29,-4.17 4.1,-10.65 8.1,-21.42 12.04,-32.21 1.39,-3.82 -0.11,-8.11 -3.57,-10.22 L 784.54,2285.09 c -11.56,-7.02 -26.07,-7.02 -37.64,0 l -324.4,196.88 c -3.46,2.11 -4.95,6.44 -3.52,10.26 l 12.04,32.03 c 1.87,4.98 7.75,7.02 12.28,4.27 l 303.61,-184.24 c 11.56,-7.03 26.07,-7.03 37.63,-0.01" id="SVGID_57_" />
        </defs>
        <use height="100%" width="100%" y="0" x="0" id="use247" style="clip-rule:evenodd;overflow:visible;fill:#2b3164;fill-rule:evenodd" xlink:href="#SVGID_57_" />
        <clipPath id="SVGID_46_">
          <use height="100%" width="100%" y="0" x="0" id="use249" style="overflow:visible" xlink:href="#SVGID_57_" />
        </clipPath>
        <g id="g260" clip-path="url(#SVGID_46_)" class="st32">
          <defs id="defs253">
            <rect height="18759.539" width="28259.27" y="-765.56" x="-873.88" id="SVGID_59_" />
          </defs>
          <use height="100%" width="100%" y="0" x="0" id="use255" style="overflow:visible;fill:#2b3164" xlink:href="#SVGID_59_" />
          <clipPath id="SVGID_48_">
            <use height="100%" width="100%" y="0" x="0" id="use257" style="overflow:visible" xlink:href="#SVGID_59_" />
          </clipPath>
        </g>
      </g>
      <g id="g282">
        <defs id="defs265">
          <path d="M 400.01,2404.27 746.28,2194.1 c 11.96,-7.24 26.93,-7.24 38.9,0 l 346.32,210.2 c 4.69,2.85 10.87,0.46 12.5,-4.8 3.54,-11.29 6.89,-22.41 10.11,-33.31 1.1,-3.7 -0.35,-7.56 -3.66,-9.58 -40.51,-24.58 -293.09,-177.9 -365.39,-221.77 -11.96,-7.26 -26.81,-7.19 -38.77,0.07 l -365.12,221.6 c -3.3,2.02 -4.87,5.94 -3.76,9.65 3.21,10.9 6.58,22.03 10.1,33.3 1.63,5.27 7.81,7.66 12.5,4.81" id="SVGID_61_" />
        </defs>
        <use height="100%" width="100%" y="0" x="0" id="use267" style="clip-rule:evenodd;overflow:visible;fill:#2b3164;fill-rule:evenodd" xlink:href="#SVGID_61_" />
        <clipPath id="SVGID_50_">
          <use height="100%" width="100%" y="0" x="0" id="use269" style="overflow:visible" xlink:href="#SVGID_61_" />
        </clipPath>
        <g id="g280" clip-path="url(#SVGID_50_)" class="st34">
          <defs id="defs273">
            <rect height="18759.539" width="28259.27" y="-765.56" x="-873.88" id="SVGID_63_" />
          </defs>
          <use height="100%" width="100%" y="0" x="0" id="use275" style="overflow:visible;fill:#2b3164" xlink:href="#SVGID_63_" />
          <clipPath id="SVGID_52_">
            <use height="100%" width="100%" y="0" x="0" id="use277" style="overflow:visible" xlink:href="#SVGID_63_" />
          </clipPath>
        </g>
      </g>
      <g id="g302">
        <defs id="defs285">
          <path d="m 783.7,2494.29 253.53,153.89 c 4.27,2.61 9.88,0.97 12.04,-3.55 4.86,-10.19 9.64,-20.5 14.29,-30.87 1.78,-3.93 0.33,-8.59 -3.33,-10.81 L 783.7,2435.09 c -11.05,-6.71 -24.9,-6.71 -35.95,0 l -276.49,167.82 c -3.66,2.22 -5.09,6.91 -3.32,10.83 4.69,10.46 9.47,20.79 14.31,30.89 2.14,4.54 7.73,6.14 12.02,3.53 l 253.48,-153.87 c 11.05,-6.69 24.88,-6.69 35.95,0" id="SVGID_65_" />
        </defs>
        <use height="100%" width="100%" y="0" x="0" id="use287" style="clip-rule:evenodd;overflow:visible;fill:#2b3164;fill-rule:evenodd" xlink:href="#SVGID_65_" />
        <clipPath id="SVGID_54_">
          <use height="100%" width="100%" y="0" x="0" id="use289" style="overflow:visible" xlink:href="#SVGID_65_" />
        </clipPath>
        <g id="g300" clip-path="url(#SVGID_54_)" class="st36">
          <defs id="defs293">
            <rect height="18759.539" width="28259.27" y="-765.56" x="-873.88" id="SVGID_67_" />
          </defs>
          <use height="100%" width="100%" y="0" x="0" id="use295" style="overflow:visible;fill:#2b3164" xlink:href="#SVGID_67_" />
          <clipPath id="SVGID_56_">
            <use height="100%" width="100%" y="0" x="0" id="use297" style="overflow:visible" xlink:href="#SVGID_67_" />
          </clipPath>
        </g>
      </g>
    </g>
  </g>
</svg>